<?xml version="1.0" standalone="no"?><!DOCTYPE svg PUBLIC "-//W3C//DTD SVG 1.1//EN" "http://www.w3.org/Graphics/SVG/1.1/DTD/svg11.dtd"><svg t="1655640813371" class="icon" viewBox="0 0 1024 1024" version="1.1" xmlns="http://www.w3.org/2000/svg" p-id="7431" xmlns:xlink="http://www.w3.org/1999/xlink" width="200" height="200"><defs><style type="text/css">@font-face { font-family: feedback-iconfont; src: url("//at.alicdn.com/t/font_1031158_u69w8yhxdu.woff2?t=1630033759944") format("woff2"), url("//at.alicdn.com/t/font_1031158_u69w8yhxdu.woff?t=1630033759944") format("woff"), url("//at.alicdn.com/t/font_1031158_u69w8yhxdu.ttf?t=1630033759944") format("truetype"); }
@font-face { font-family: rbicon; src: url("chrome-extension://dipiagiiohfljcicegpgffpbnjmgjcnf/fonts/rbicon.woff2") format("woff2"); font-weight: normal; font-style: normal; }
</style></defs><path d="M920.900608 62.94016l-818.06336 0c-21.702656 0-39.46496 17.760256-39.46496 39.510016l0 818.018304c0 21.74976 17.762304 39.510016 39.46496 39.510016l818.06336 0c21.70368 0 39.467008-17.760256 39.467008-39.510016L960.367616 102.450176C960.367616 80.700416 942.604288 62.94016 920.900608 62.94016zM825.208832 587.444224c-22.158336 0-40.914944-19.212288-47.440896-41.05216C793.762816 726.180864 660.779008 857.940992 521.406464 857.940992c-27.592704 0-57.406464-22.381568-57.406464-49.931264 0-23.743488 22.065152-43.498496 45.807616-48.57344-201.582592 18.848768-317.39392-142.452736-317.39392-262.612992 0-27.548672 23.559168-57.271296 51.155968-57.271296 24.781824 0 45.261824 24.195072 49.2032 49.11616-3.30752 7.066624-5.210112 15.404032-5.210112 23.74144 0 75.577344 83.279872 167.737344 186.630144 167.737344l0.045056 0c4.711424 0 9.468928-0.273408 14.227456-0.817152-5.07392 8.428544-8.066048 18.214912-8.066048 28.817408 0 22.472704 13.503488 41.956352 32.805888 50.747392 7.021568 3.171328 14.814208 5.075968 23.016448 5.075968 45.037568 0 87.085056-20.207616 118.483968-56.819712 33.892352-39.69024 51.336192-94.333952 47.077376-145.533952 8.880128 5.98016 19.482624 9.60512 30.99136 9.60512 20.799488 0 36.611072-11.507712 43.906048-30.447616 2.854912-7.42912 4.48512-15.766528 4.48512-25.280512 0-75.577344-80.197632-166.557696-179.831808-166.557696-4.757504 0-9.470976 0.997376-14.229504 1.357824 5.48352-8.608768 8.654848-17.035264 8.654848-28.00128 0-26.097664-14.093312-54.189056-38.24128-54.189056 0.135168 0 0 0-6.524928 0.722944-4.5312 0-6.162432-2.627584-11.057152-2.627584-52.5568 0-100.946944 23.923712-132.7104 72.133632-25.012224 37.968896-36.248576 84.274176-32.621568 126.956544-8.882176-6.070272-19.61984-9.515008-31.173632-9.515008-21.884928 0-40.823808 12.596224-49.978368 30.99136-9.423872-191.47776 119.799808-318.25408 261.347328-318.25408 27.592704 0 57.361408 22.564864 57.361408 50.112512 0 20.026368-15.722496 37.33504-34.886656 45.308928 191.840256-0.54272 290.434048 147.347456 290.434048 264.881152C867.708928 556.360704 852.801536 587.444224 825.208832 587.444224zM688.736256 515.22048c0-44.04224-73.039872-129.133568-130.311168-148.978688 14.13632-3.987456 28.499968-6.070272 42.908672-6.070272 93.064192 0 168.005632 84.818944 168.005632 155.04896 0 20.388864-9.560064 44.041216-36.564992 44.041216C708.49024 559.261696 688.736256 539.505664 688.736256 515.22048zM687.965184 607.9232c-5.663744 33.34656-20.298752 65.788928-42.272768 91.435008-29.044736 34.071552-67.920896 52.739072-109.468672 52.739072-24.241152 0-43.99616-19.755008-43.99616-44.041216 0-24.285184 19.755008-43.95008 43.99616-43.95008l11.282432-0.180224 1.856512-0.362496c46.261248-9.967616 114.317312-71.588864 134.296576-124.510208 1.451008 4.347904 2.176 8.064 3.398656 15.946752C689.82272 572.57984 690.050048 590.432256 687.965184 607.9232zM539.937792 362.799104c-48.796672 0-129.357824 74.126336-148.840448 129.946624-12.596224-47.393792-3.216384-103.122944 26.008576-147.436544 29.540352-44.85632 74.30656-70.591488 122.831872-70.591488 24.28928 0 44.043264 19.753984 44.043264 44.041216C583.980032 343.043072 564.226048 362.799104 539.937792 362.799104zM387.472384 511.594496c0 42.77248 68.736 124.148736 125.145088 147.076096-15.223808 4.801536-30.268416 7.339008-44.857344 7.883776-91.343872-3.807232-168.3712-86.813696-168.3712-154.959872 0-24.285184 19.756032-44.041216 44.04224-44.041216C367.716352 467.55328 387.472384 487.309312 387.472384 511.594496z" p-id="7432"></path></svg>