<?xml version="1.0" standalone="no"?><!DOCTYPE svg PUBLIC "-//W3C//DTD SVG 1.1//EN" "http://www.w3.org/Graphics/SVG/1.1/DTD/svg11.dtd"><svg t="1548646460928" class="icon" style="" viewBox="0 0 1024 1024" version="1.1" xmlns="http://www.w3.org/2000/svg" p-id="26332" xmlns:xlink="http://www.w3.org/1999/xlink" width="300" height="300"><defs><style type="text/css"></style></defs><path d="M450.166211 241.48389c51.183729 0 111.451348 36.418444 122.022101 96.351442 1.064238-6.65763 1.63422-13.482059 1.63422-20.440541 0-71.001077-57.554834-128.556934-128.555911-128.556934-71.002101 0-128.556934 57.555857-128.556934 128.556934 0 7.216355 0.623193 14.283308 1.763157 21.174252C330.280774 278.205233 399.894248 241.48389 450.166211 241.48389z" fill="" p-id="26333"></path><path d="M801.208333 605.783966l-31.703049 0 0 31.840172-8.106632 0 0-20.47124c0-15.239076-11.844769-27.590382-26.459628-27.590382l-45.106314 0 0 39.334867-11.17348 0 0-19.85828c0-15.237029-12.353352-27.591405-27.590382-27.591405l-47.039339 0 0 35.282574-12.981662 0 0-14.182001c0-15.239076-12.351306-27.592428-27.590382-27.592428l-61.635779 0 0-210.739678c0-26.971281-21.062711-48.834218-47.049572-48.834218-25.980721 0-47.044456 21.861914-47.044456 48.834218l0 390.658398c0 0.147356 0.020466 0.288572 0.021489 0.432859l-104.690364-100.534717c-16.7198-16.051581-37.188994-21.87317-45.718251-12.989849l-37.217646 38.755676c-8.527211 8.878205-1.88493 29.097712 14.833847 45.152363l126.371152 121.361045c2.238994 2.148943 4.545526 4.098341 6.879688 5.870708l0 0c122.82028 117.210515 142.130068 106.930381 142.130068 106.930381s127.759779 0 212.9316 0c85.172845 0 96.532567-95.653547 96.532567-95.653547L819.801806 748.537228 819.801806 633.373325C819.801806 618.137319 811.479257 605.783966 801.208333 605.783966z" fill="" p-id="26334"></path><path d="M445.266621 63.10934c-135.071302 0-244.567111 109.494787-244.567111 244.567111 0 111.626333 74.813916 205.715245 177.01253 235.041154L377.712039 465.760886c-61.34209-26.247804-104.331183-87.140663-104.331183-158.084435 0-94.930069 76.953649-171.884742 171.884742-171.884742 94.929046 0 171.884742 76.954673 171.884742 171.884742 0 63.687508-34.662451 119.240755-86.128613 148.937101l0 80.132038c92.76373-34.743292 158.808936-124.177184 158.808936-229.069139C689.831686 172.60515 580.33997 63.10934 445.266621 63.10934z" fill="" p-id="26335"></path></svg>