<?xml version="1.0" standalone="no"?><!DOCTYPE svg PUBLIC "-//W3C//DTD SVG 1.1//EN" "http://www.w3.org/Graphics/SVG/1.1/DTD/svg11.dtd"><svg t="1548234162073" class="icon" style="" viewBox="0 0 1170 1024" version="1.1" xmlns="http://www.w3.org/2000/svg" p-id="34735" xmlns:xlink="http://www.w3.org/1999/xlink" width="342.7734375" height="300"><defs><style type="text/css"></style></defs><path d="M1045.796571 1024H49.737143C24.868571 1024 0 998.4 0 972.8V115.2c0-25.6 24.868571-51.2 49.737143-51.2 24.941714 0 49.883429 25.6 49.883428 51.2v793.6h946.176c24.868571 0 49.737143 25.6 49.737143 51.2 0 38.4-24.868571 64-49.737143 64z m-697.197714-166.4H248.978286c-24.868571 0-49.737143-25.6-49.737143-51.2v-588.8c0-25.6 24.868571-51.2 49.737143-51.2h99.620571c24.868571 0 49.737143 25.6 49.737143 51.2v588.8c0 25.6-24.868571 51.2-49.737143 51.2z m273.92 0H522.898286c-24.868571 0-49.737143-25.6-49.737143-51.2v-102.4c0-25.6 24.868571-51.2 49.737143-51.2H622.445714c24.868571 0 49.737143 25.6 49.737143 51.2v102.4c12.434286 25.6-12.434286 51.2-49.737143 51.2zM871.497143 614.4C709.632 614.4 585.142857 473.6 585.142857 307.2 585.142857 140.8 709.632 0 871.497143 0S1170.285714 140.8 1170.285714 307.2c0 166.4-136.923429 307.2-298.788571 307.2z m112.054857-512l-112.054857 166.4L771.876571 102.4l-49.737142 38.4 87.04 140.8h-87.04v51.2h111.981714V409.6H722.066286v51.2h112.054857v115.2h62.244571V435.2h112.054857v-38.4h-112.054857v-76.8h112.054857v-51.2h-87.113142l87.113142-140.8-24.868571-25.6z" p-id="34736"></path></svg>