<?xml version="1.0" standalone="no"?><!DOCTYPE svg PUBLIC "-//W3C//DTD SVG 1.1//EN" "http://www.w3.org/Graphics/SVG/1.1/DTD/svg11.dtd"><svg t="1547440899932" class="icon" style="" viewBox="0 0 1024 1024" version="1.1" xmlns="http://www.w3.org/2000/svg" p-id="5194" xmlns:xlink="http://www.w3.org/1999/xlink" width="300" height="300"><defs><style type="text/css"></style></defs><path d="M984.685883 218.190769a73.806769 73.806769 0 0 0-60.022154-63.803077 1480.861538 1480.861538 0 0 1-194.166154-43.323077 719.478154 719.478154 0 0 1-173.292307-96.886153 83.022769 83.022769 0 0 0-92.790154 0 470.016 470.016 0 0 1-174.788923 96.886153 672.531692 672.531692 0 0 1-189.046154 44.11077 69.710769 69.710769 0 0 0-59.392 64.590769c-1.417846 31.507692-1.969231 159.901538-1.969231 300.898461 0 256 315.076923 503.335385 472.615385 503.335385s424.251077-174.867692 467.022769-499.396923a2836.401231 2836.401231 0 0 0 3.308308-305.624615zM813.205268 415.901538L484.343729 712.861538a45.528615 45.528615 0 0 1-54.665846 4.726154l-8.664615-7.08923-181.169231-180.381539a42.220308 42.220308 0 0 1 2.678154-61.44 46.710154 46.710154 0 0 1 64.039384 2.363077l149.661539 150.449231 296.172308-268.603077a46.710154 46.710154 0 0 1 64.039384 2.363077 42.141538 42.141538 0 0 1-2.678154 61.44" p-id="5195"></path></svg>