<?xml version="1.0" standalone="no"?><!DOCTYPE svg PUBLIC "-//W3C//DTD SVG 1.1//EN" "http://www.w3.org/Graphics/SVG/1.1/DTD/svg11.dtd"><svg t="1548233405020" class="icon" style="" viewBox="0 0 1024 1024" version="1.1" xmlns="http://www.w3.org/2000/svg" p-id="11898" xmlns:xlink="http://www.w3.org/1999/xlink" width="300" height="300"><defs><style type="text/css"></style></defs><path d="M512 1021.44C230.4 1021.44 2.56 793.6 2.56 512S230.4 2.56 512 2.56 1021.44 230.4 1021.44 512 793.6 1021.44 512 1021.44z m-302.08-464.896v158.72l143.36 79.872 142.848-79.36v-158.72L353.28 477.184l-143.36 79.36z m444.928-285.696L512 191.488 369.152 270.848v158.72L512 508.928l142.848-79.36v-158.72z m159.232 285.696l-143.36-79.36-142.848 79.36v158.72l142.848 79.36 142.848-79.36v-158.72z m-254.464 140.288v-121.344l111.104-61.952 111.104 61.952v121.344L670.72 758.784l-111.104-61.952z" p-id="11899"></path></svg>