<?xml version="1.0" standalone="no"?><!DOCTYPE svg PUBLIC "-//W3C//DTD SVG 1.1//EN" "http://www.w3.org/Graphics/SVG/1.1/DTD/svg11.dtd"><svg t="1658085500462" class="icon" viewBox="0 0 1024 1024" version="1.1" xmlns="http://www.w3.org/2000/svg" p-id="14629" xmlns:xlink="http://www.w3.org/1999/xlink" width="200" height="200"><defs><style type="text/css">@font-face { font-family: feedback-iconfont; src: url("//at.alicdn.com/t/font_1031158_u69w8yhxdu.woff2?t=1630033759944") format("woff2"), url("//at.alicdn.com/t/font_1031158_u69w8yhxdu.woff?t=1630033759944") format("woff"), url("//at.alicdn.com/t/font_1031158_u69w8yhxdu.ttf?t=1630033759944") format("truetype"); }
@font-face { font-family: rbicon; src: url("chrome-extension://dipiagiiohfljcicegpgffpbnjmgjcnf/fonts/rbicon.woff2") format("woff2"); font-weight: normal; font-style: normal; }
</style></defs><path d="M512 897.219048c-214.552381 0-385.219048-175.542857-385.219048-385.219048 0-214.552381 175.542857-385.219048 385.219048-385.219048 214.552381 0 385.219048 175.542857 385.219048 385.219048 0 39.009524-4.87619 78.019048-19.504762 117.028571l92.647619 29.257143c14.628571-48.761905 19.504762-92.647619 19.504762-146.285714C989.866667 243.809524 770.438095 29.257143 507.12381 29.257143S29.257143 243.809524 29.257143 512s219.428571 482.742857 482.742857 482.742857c63.390476 0 126.780952-9.752381 185.295238-34.133333l-39.009524-92.647619c-43.885714 19.504762-97.52381 29.257143-146.285714 29.257143z" p-id="14630"></path><path d="M687.542857 526.628571v-97.523809h-87.771428l73.142857-131.657143-82.895238-48.761905-78.019048 136.533334-78.019048-136.533334-82.895238 48.761905 73.142857 131.657143H336.457143v97.523809h126.780952v43.885715H336.457143v97.523809h126.780952v131.657143h97.52381v-131.657143h126.780952v-97.523809h-126.780952v-43.885715zM789.942857 702.171429l43.885714 39.009523h-204.8v97.52381h204.8l-43.885714 43.885714 58.514286 58.514286 146.285714-151.161905-146.285714-146.285714z" p-id="14631"></path></svg>