<?xml version="1.0" standalone="no"?><!DOCTYPE svg PUBLIC "-//W3C//DTD SVG 1.1//EN" "http://www.w3.org/Graphics/SVG/1.1/DTD/svg11.dtd"><svg t="1548233981057" class="icon" style="" viewBox="0 0 1406 1024" version="1.1" xmlns="http://www.w3.org/2000/svg" p-id="28088" xmlns:xlink="http://www.w3.org/1999/xlink" width="411.9140625" height="300"><defs><style type="text/css"></style></defs><path d="M178.965291 1024C97.411766 1024 31.0616 958.096345 31.0616 877.088986V178.496778C31.0616 97.48942 97.411766 31.58447 178.965291 31.58447h9.438843l25.267318 0.496986a59.428606 59.428606 0 0 0 3.336533-0.331324l0.432274-0.051769c10.123493 0.209666 18.293988 8.509584 18.293988 18.680964 0 10.139024-8.117431 18.418235-18.195626 18.678375-0.214843-0.029767-0.445216-0.0673-0.665236-0.099656a91.475118 91.475118 0 0 0-1.603555-0.232962l-26.865696 0.887844h-19.23619c-26.414008 0-51.203753 10.243857-69.804474 28.844578C80.694154 117.125528 70.41147 141.915273 70.41147 168.259393v719.175694c0 54.39145 44.300313 98.642582 98.75518 98.642582H488.767217a397.710137 397.710137 0 0 0 27.059831 37.919743l-336.861757 0.002588z m845.173192-580.291516a397.065609 397.065609 0 0 0-39.34987-20.93293V168.259393c-0.14366-54.409569-44.446561-98.646464-98.757769-98.646465h-20.997641l-26.628851-0.917611c-0.644528 0.081537-1.250229 0.16825-1.84946 0.254964-0.234256 0.03365-0.451687 0.0673-0.650999 0.094479-9.564384-0.551343-17.535567-8.966449-17.535567-18.664139 0-9.793464 7.826229-18.015728 17.591219-18.657668l0.640646 0.091891c0.561697 0.081537 1.171281 0.166956 1.791219 0.24461l26.643087-0.550049v0.185075h11.202884c81.554819 0 147.903691 65.903655 147.90369 146.911014l-0.002588 265.10299z" fill="" p-id="28089"></path><path d="M524.627835 806.808234c-15.023461 0-27.244906-12.451819-27.244906-27.756128V644.00274H323.68905c-15.023461 0-27.2462-12.453113-27.2462-27.761305 0-15.305603 12.22274-27.757422 27.2462-27.757422h173.693879v-107.289355H323.68905c-15.023461 0-27.2462-12.453113-27.2462-27.758716s12.22274-27.758716 27.2462-27.758717h172.561425L344.51197 272.086673c-11.424198-11.569152-11.424198-30.39507 0.001295-41.96681 5.381422-5.475901 12.841383-8.604063 20.489007-8.604063 7.648919 0 15.107586 3.128162 20.467006 8.582061L524.629129 370.994573 663.765683 230.077153c5.487549-5.544496 12.772789-8.604063 20.504539-8.604063 7.723985 0 14.994987 3.055685 20.472183 8.604063 11.425492 11.573034 11.425492 30.401541 0 41.973282L553.059552 425.675931h172.509655c15.020872 0 27.242317 12.453113 27.242318 27.758717 0 15.306898-12.220151 27.758716-27.242318 27.758716H551.875329v107.289355h105.393303c-23.48257 17.068349-43.809798 37.754081-57.07569 55.518727h-48.317613v135.049365c0 15.305603-12.22274 27.757422-27.247494 27.757423zM1007.014482 999.876785c-21.410502-0.667824-38.978425-8.817612-55.266352-25.643939-16.999755-17.554981-31.511993-44.420676-43.135503-79.850314l-0.022002-0.066006c-10.782258-34.897708-19.280194-76.861929-25.260846-124.730443l-1.603555-12.840089-88.656277 11.051458-3.997887-30.049509 89.914272-10.980276-1.179046-12.533355c-3.318414-35.288566-5.654505-73.977083-6.943562-115.010751h35.053015c0.296379 37.182029 2.16137 74.791156 5.539319 111.802346l1.22305 13.390138 142.154707-18.466121 2.990973 29.97315-142.497678 18.516596 1.789925 12.926803a703.924449 703.924449 0 0 0 20.538188 97.138682l0.059535 0.22002c10.528588 43.226099 25.584404 72.930048 46.02682 90.809882 6.238205 6.161845 12.741727 9.302949 19.289254 9.302949 2.160075 0 4.287795-0.348149 6.322329-1.031504 7.969889-2.623411 13.416023-9.485436 15.670578-19.817301a273.040523 273.040523 0 0 0 11.469495-50.541106 628.906803 628.906803 0 0 0 29.923969 15.645987c-6.500934 29.271675-13.453555 50.881489-20.665023 64.240566l-0.665236 1.233404-0.181193 0.627703c-6.689892 15.71717-18.750853 23.5654-37.891269 24.68103z m-291.469112-1.83134v-237.56947l-49.240401 61.574444c-2.932733-15.37808-6.485403-31.622003-10.568709-48.324084 37.297216-50.793481 68.209979-109.700511 91.890566-175.105887l34.702278 10.84697a1241.129643 1241.129643 0 0 1-33.937386 84.318007l-1.1221 2.514696v301.745324h-31.724248z m298.556333-330.293523c-18.309519-17.886305-36.026279-33.863615-52.681767-47.511306l17.922543-18.862156a810.442441 810.442441 0 0 1 57.180523 44.771413l-6.503523 6.507405c-4.522051 3.673034-9.875 8.751606-15.917776 15.094644z" fill="" p-id="28090"></path><path d="M1006.980832 994.512188c-19.850951-0.673001-36.182881-8.30639-51.381064-24.009323-16.431586-16.972576-30.525787-43.145857-41.891744-77.792483l-0.002588-0.007765c-10.70331-34.647921-19.140417-76.364943-25.07836-123.984965l-2.245495-17.954899-88.695104 11.05793-2.581995-19.408323 89.71496-10.956979-1.65403-17.530391c-3.168283-33.646184-5.440957-70.399822-6.761075-109.342009h24.206046a1354.259873 1354.259873 0 0 0 5.528964 107.149578l1.721331 18.714614 142.188356-18.470004 1.925819 19.300902-142.686636 18.539892 2.490105 18.066203a708.912424 708.912424 0 0 0 20.729735 98.106769l0.001295 0.007766c10.774492 44.234307 26.33506 74.804098 47.566957 93.447529 7.254178 7.126049 14.985928 10.751196 22.955817 10.751196 2.74248 0 5.442251-0.440039 8.026835-1.30847 6.818021-2.248083 15.714581-8.174378 19.144299-23.494217a278.185101 278.185101 0 0 0 10.498821-43.513419 636.286521 636.286521 0 0 0 19.553277 10.154555c-6.120429 26.705211-12.583831 46.460388-19.229719 58.768547l-0.458158 0.860665-0.34556 0.83478c-5.822756 14.153736-16.078261 20.944578-33.241089 22.012321z m-286.073453-1.822281V745.18849l-51.580375 64.499413a999.005766 999.005766 0 0 0-7.792579-34.807111c36.023691-49.485011 66.069317-106.512815 89.371988-169.61575l24.468776 7.648919a1235.220174 1235.220174 0 0 1-31.896381 78.730802l-1.569905 3.506078v297.537772h-21.001524z m293.084315-332.520898c-15.446675-14.93157-30.448133-28.482193-44.729999-40.399494l10.751197-11.312893a807.381579 807.381579 0 0 1 48.615286 38.009044l-2.193725 2.196314c-3.70539 3.034977-7.867644 6.886616-12.442759 11.507029z" fill="" p-id="28091"></path><path d="M1006.92518 993.26843c-19.462681-0.683355-35.496938-8.197674-50.433685-23.628818-16.28275-16.814679-30.269529-42.792531-41.572069-77.210078-10.702015-34.646626-19.133946-76.319645-25.062828-123.863307l-2.389155-19.188303-88.714518 11.057929-2.25326-16.941514 89.670956-10.954391-1.769217-18.730145c-3.135927-33.299329-5.390482-69.590926-6.713188-107.985652h21.693939a1353.593343 1353.593343 0 0 0 5.522494 106.0223l1.830046 19.9972 142.205181-18.471299 1.679915 16.830211-142.733229 18.545069 2.663533 19.308667a711.368879 711.368879 0 0 0 20.759502 98.267254c10.83791 44.471151 26.524018 75.242843 47.94358 94.051936 7.471609 7.327949 15.486796 11.063107 23.781537 11.063107 2.878375 0 5.711452-0.462041 8.422871-1.37577 7.107929-2.341268 16.3837-8.491465 19.950607-24.347117a279.689 279.689 0 0 0 10.246445-41.913747 638.116567 638.116567 0 0 0 17.177065 8.906914c-6.028539 26.109863-12.376753 45.43665-18.891924 57.504081l-0.482749 0.88655-0.392153 0.960321c-5.600148 13.612746-15.523035 20.170626-32.139696 21.208602z m-284.777926-1.823575V741.646174l-52.136895 65.203475a1005.188319 1005.188319 0 0 0-7.133814-31.704834c35.726017-49.171807 65.571037-105.762159 88.785701-168.343518l22.104211 6.908618a1237.354365 1237.354365 0 0 1-31.418809 77.426215l-1.67862 3.757159v296.551566h-18.521774z m291.827615-333.017884c-14.79697-14.266334-29.179785-27.260437-42.901247-38.760994l9.090695-9.568267a804.861707 804.861707 0 0 1 46.629933 36.44561l-1.203637 1.203637c-3.46984 2.846019-7.360305 6.421986-11.615744 10.680014z" fill="" p-id="28092"></path><path d="M1006.841054 987.902538c-17.86948-0.693709-32.658684-7.691629-46.499215-21.990318-15.715875-16.229686-29.282029-41.512534-40.32831-75.149659-10.590711-34.281652-18.947576-75.618171-24.836338-122.858981l-3.058273-24.507603-88.752051 11.063107-0.837369-6.299034 89.463879-10.927212-2.254554-23.92002c-2.974148-31.58447-5.153637-65.882948-6.494463-102.122776h10.856029a1360.624912 1360.624912 0 0 0 5.465547 101.148218l2.339974 25.541695 142.25048-18.476475 0.614761 6.155373-142.929952 18.572249 3.398656 24.660322a716.060475 716.060475 0 0 0 20.877278 98.86519c11.087697 45.467711 27.278556 77.091008 49.486306 96.652051 8.509584 8.292153 17.737468 12.495823 27.431275 12.495822 3.472428 0 6.886616-0.560403 10.153261-1.663089 6.828375-2.246789 19.003228-8.909502 23.389385-27.978737a284.701565 284.701565 0 0 0 9.069987-35.166908c2.327032 1.217874 4.661828 2.421511 6.999214 3.608323-5.62215 23.556341-11.472084 41.045316-17.42297 52.067007l-0.619937 1.142808-0.500869 1.226933c-4.814548 11.689515-12.737844 16.902687-27.261731 17.861714z m-279.333085-1.819692v-259.726745l-54.623118 68.31093a1028.822313 1028.822313 0 0 0-4.223083-18.379408c34.469316-47.845218 63.435552-102.547284 86.239944-162.857263l11.877179 3.711862a1230.393978 1230.393978 0 0 1-29.328622 71.810536l-2.14325 4.795134v292.33366h-7.79905z m286.430661-335.117131c-12.016956-11.466907-23.750476-22.083503-35.064664-31.725541l1.937468-2.038418a798.442309 798.442309 0 0 1 37.782553 29.472282 173.029937 173.029937 0 0 0-4.655357 4.291677zM417.369542 57.500198c-6.610944 0-12.997985-2.620822-17.52392-7.192054-4.801606-4.801606-7.426311-11.095462-7.426311-17.75947v-7.595855c0-13.7577 11.19253-24.95023 24.951525-24.950231H631.780001c6.590236 0 13.102818 2.707536 17.869479 7.427606 4.624296 4.62559 7.192055 10.8625 7.192055 17.523919v7.595855c0 13.7577-11.191236 24.951524-24.948936 24.951525H417.369542z" fill="" p-id="28093"></path></svg>