<?xml version="1.0" standalone="no"?><!DOCTYPE svg PUBLIC "-//W3C//DTD SVG 1.1//EN" "http://www.w3.org/Graphics/SVG/1.1/DTD/svg11.dtd"><svg t="1548233707910" class="icon" style="" viewBox="0 0 1024 1024" version="1.1" xmlns="http://www.w3.org/2000/svg" p-id="18977" xmlns:xlink="http://www.w3.org/1999/xlink" width="300" height="300"><defs><style type="text/css"></style></defs><path d="M287.6 287.2a232.2 223.8 90 1 0 447.6 0 232.2 223.8 90 1 0-447.6 0Z" p-id="18978"></path><path d="M696.6 794.8c-9.8 12-20.2 23.7-31.3 35.2l-9.8-32.3c33.9-37.8 58.7-81.9 74.4-132.1l29 13.7c-8 24.4-18.4 47.4-31 69.2v220.5h-31.3v-174.2z m246.3-52.8l4.9 29.4-105.4 14c2 18.1 4.2 33.5 6.9 46.3 7.6 34.1 17.7 60.1 30.3 78 11.7 17 22.9 25.8 33.6 26.4 7.6-0.7 13.4-20.4 17.3-59.4l27.1 15.7c-4.6 26.1-10.6 46-17.9 59.7-6.5 10-14.8 15.1-24.8 15.3-16.3 0-33.2-10.4-50.6-31.3-19.1-23.1-33.4-53-42.7-89.7-4.1-16.1-7.3-35-9.5-56.8l-67.9 9.1-4.9-29.4 70.1-9.5c-2.2-29.1-3.4-60.2-3.6-93.3h31.3c0 33.3 1 63 2.9 89.1l102.9-13.6z m-70.8-74.1c19.4 16.3 35.9 32.5 49.6 48.6l-21.2 20.9c-11.3-15.7-27.4-32.4-48.3-50.2l19.9-19.3z" p-id="18979"></path><path d="M610.6 833.2c0-118.5 85.5-216.2 195.9-230.5-43.2-18.3-88.4-32.6-139.3-42.2l-102.7 302c-6.5-84.9-17.7-223.4-17.7-223.4l13.3-42.5s7.2-16.1-7.2-16.1h-82c-14.5 0-9.6 16.1-9.6 16.1l15.1 42.5s-11.3 138.4-17.8 223.3L355.7 560.6c-67.2 12.6-124.4 33.7-180.1 61l-2.4 1.2a46.23 46.23 0 0 0-22.5 26.6l-77.2 233.1-4.7 14.3c-8.1 24.4 5.2 50.8 29.6 58.8 5 1.7 10.1 2.4 15.2 2.4h532c-22.1-36-35-78.9-35-124.8z" p-id="18980"></path></svg>