<?xml version="1.0" standalone="no"?><!DOCTYPE svg PUBLIC "-//W3C//DTD SVG 1.1//EN" "http://www.w3.org/Graphics/SVG/1.1/DTD/svg11.dtd"><svg t="1577129163692" class="icon" viewBox="0 0 1024 1024" version="1.1" xmlns="http://www.w3.org/2000/svg" p-id="22823" xmlns:xlink="http://www.w3.org/1999/xlink" width="200" height="200"><defs><style type="text/css"></style></defs><path d="M772.725116 65.804728 251.302513 65.804728c-102.279455 0-185.494715 83.21526-185.494715 185.494715l0 521.401114c0 102.286618 83.21526 185.494715 185.494715 185.494715l521.422603 0c102.272291 0 185.465039-83.208097 185.465039-185.494715L958.190155 251.299443C958.191178 149.019988 874.997408 65.804728 772.725116 65.804728zM869.048929 772.700557c0 53.131081-43.207058 96.352465-96.323812 96.352465L251.302513 869.053022c-53.131081 0-96.352465-43.221384-96.352465-96.352465L154.950048 251.299443c0-53.131081 43.221384-96.352465 96.352465-96.352465l521.422603 0c53.116755 0 96.323812 43.221384 96.323812 96.352465L869.048929 772.700557z" p-id="22824"></path><path d="M649.40137 525.311167c24.62177 0 44.571125-19.956517 44.571125-44.571125 0-24.613584-19.949354-44.571125-44.571125-44.571125L581.170382 436.168917l79.141478-79.152734c17.410532-17.403369 17.410532-45.630247 0-63.033615-17.410532-17.396205-45.644573-17.403369-63.026452 0.007163L512.017396 379.271046l-85.296665-85.279269c-17.410532-17.396205-45.644573-17.403369-63.026452 0.007163-17.410532 17.410532-17.410532 45.630247 0 63.033615l79.154781 79.138408-68.228941 0c-24.62177 0-44.571125 19.956517-44.571125 44.571125 0 24.614607 19.949354 44.571125 44.571125 44.571125l92.827175 0 0 39.057551-92.827175 0c-24.62177 0-44.571125 19.956517-44.571125 44.571125 0 24.613584 19.949354 44.571125 44.571125 44.571125l92.827175 0 0 62.213947c0 24.613584 19.949354 44.571125 44.571125 44.571125 24.62177 0 44.571125-19.956517 44.571125-44.571125l0-62.213947 92.812849 0c24.62177 0 44.571125-19.956517 44.571125-44.571125 0-24.614607-19.949354-44.571125-44.571125-44.571125l-92.812849 0 0-39.057551L649.40137 525.313214z" p-id="22825"></path></svg>