<?xml version="1.0" standalone="no"?><!DOCTYPE svg PUBLIC "-//W3C//DTD SVG 1.1//EN" "http://www.w3.org/Graphics/SVG/1.1/DTD/svg11.dtd"><svg t="1655639956095" class="icon" viewBox="0 0 1024 1024" version="1.1" xmlns="http://www.w3.org/2000/svg" p-id="3487" xmlns:xlink="http://www.w3.org/1999/xlink" width="200" height="200"><defs><style type="text/css">@font-face { font-family: feedback-iconfont; src: url("//at.alicdn.com/t/font_1031158_u69w8yhxdu.woff2?t=1630033759944") format("woff2"), url("//at.alicdn.com/t/font_1031158_u69w8yhxdu.woff?t=1630033759944") format("woff"), url("//at.alicdn.com/t/font_1031158_u69w8yhxdu.ttf?t=1630033759944") format("truetype"); }
@font-face { font-family: rbicon; src: url("chrome-extension://dipiagiiohfljcicegpgffpbnjmgjcnf/fonts/rbicon.woff2") format("woff2"); font-weight: normal; font-style: normal; }
</style></defs><path d="M979.210273 0H44.803274C20.062583 0 0.004516 20.058067 0.004516 44.798758V356.728344c0 24.740691 20.058067 44.798758 44.798758 44.798758h120.501931v577.660593c0 24.745207 20.053552 44.803274 44.803274 44.803274h603.796589c24.740691 0 44.803274-20.053552 44.803273-44.803274V401.527102h120.501932c24.740691 0 44.803274-20.053552 44.803274-44.798758V44.798758C1024.009031 20.058067 1003.946448 0 979.210273 0z m-351.941862 647.96317a25.598645 25.598645 0 1 1 0 51.197291h-89.656219v89.665249a25.603161 25.603161 0 0 1-51.206322 0v-89.665249H396.736105a25.598645 25.598645 0 1 1 0-51.197291h89.66525v-51.621752H396.736105a25.598645 25.598645 0 1 1 0-51.197291h65.502549l-83.600868-83.600868a25.59413 25.59413 0 0 1 0-36.205669 25.59413 25.59413 0 0 1 36.205669 0l97.165576 97.165576 97.165576-97.165576a25.59413 25.59413 0 0 1 36.205669 0 25.612192 25.612192 0 0 1 0 36.205669l-83.609899 83.600868h65.502549a25.598645 25.598645 0 1 1 0 51.197291h-89.656218v51.621752h89.651703z m345.538814-297.633359h-114.098884V232.762987h15.063871c17.673857 0 31.997178-14.32332 31.997178-31.997178s-14.32332-31.997178-31.997178-31.997178H150.241335c-17.673857 0-31.997178 14.32332-31.997178 31.997178s14.32332 31.997178 31.997178 31.997178h15.06387v117.566824H51.201806V51.197291h921.600903v299.13252z" p-id="3488"></path></svg>