<?xml version="1.0" standalone="no"?><!DOCTYPE svg PUBLIC "-//W3C//DTD SVG 1.1//EN" "http://www.w3.org/Graphics/SVG/1.1/DTD/svg11.dtd"><svg t="1550115804149" class="icon" style="" viewBox="0 0 1024 1024" version="1.1" xmlns="http://www.w3.org/2000/svg" p-id="13321" xmlns:xlink="http://www.w3.org/1999/xlink" width="300" height="300"><defs><style type="text/css"></style></defs><path d="M387.630545 23.272727h-285.78909C58.368 23.272727 23.272727 58.414545 23.272727 101.841455v285.78909c0 43.426909 35.141818 78.568727 78.568728 78.568728h285.78909c43.426909 0 78.568727-35.141818 78.568728-78.568728v-285.78909C466.199273 58.368 431.010909 23.272727 387.630545 23.272727z m534.574546 0h-285.835636c-43.426909 0-78.568727 35.141818-78.568728 78.568728v285.78909c0 43.426909 35.141818 78.568727 78.568728 78.568728h285.78909c43.426909 0 78.568727-35.141818 78.568728-78.568728v-285.78909C1000.727273 58.368 965.585455 23.272727 922.158545 23.272727zM387.630545 557.800727h-285.78909c-43.426909 0-78.568727 35.141818-78.568728 78.568728v285.78909c0 43.426909 35.141818 78.568727 78.568728 78.568728h285.78909c43.426909 0 78.568727-35.141818 78.568728-78.568728v-285.78909c0-43.426909-35.141818-78.568727-78.568728-78.568728z m534.574546 0h-285.835636c-43.426909 0-78.568727 35.141818-78.568728 78.568728v285.78909c0 43.426909 35.141818 78.568727 78.568728 78.568728h285.78909c43.426909 0 78.568727-35.141818 78.568728-78.568728v-285.78909c0-43.426909-35.141818-78.568727-78.568728-78.568728z" p-id="13322"></path></svg>