<?xml version="1.0" standalone="no"?><!DOCTYPE svg PUBLIC "-//W3C//DTD SVG 1.1//EN" "http://www.w3.org/Graphics/SVG/1.1/DTD/svg11.dtd"><svg t="1548646948434" class="icon" style="" viewBox="0 0 1024 1024" version="1.1" xmlns="http://www.w3.org/2000/svg" p-id="44287" xmlns:xlink="http://www.w3.org/1999/xlink" width="300" height="300"><defs><style type="text/css"></style></defs><path d="M633.327 575.959v86.64l-228.541-138.485 228.54-133.709v76.406h245.597c0 0 29.322 3.41 29.322 42.296v30.020c0 0 0.696 34.109-38.19 36.838h-236.728z" p-id="44288"></path><path d="M812.61056 834.63168c0 0 53.71904-46.04416 10.74688-90.55744 0 0-42.97728-32.23552-89.02656 19.94752 0 0-98.5856 95.16544-218.89536 84.41856 0 0-304.50176 6.13888-342.87104-316.19072 0 0-49.12128-285.48608 326.93248-369.89952 0 0 179.57888-13.81888 247.1168 95.16032 0 0 29.16352 46.04928 78.27968 12.27776 0 0 36.83328-36.8384-1.536-85.95456 0 0-122.09664-121.2672-288.97792-121.2672 0 0-463.5136 6.14912-461.00992 465.08032 0 0 7.45984 400.34816 445.4912 418.12992C518.85568 945.78688 688.28672 943.60576 812.61056 834.63168z" p-id="44289"></path></svg>