<?xml version="1.0" standalone="no"?><!DOCTYPE svg PUBLIC "-//W3C//DTD SVG 1.1//EN" "http://www.w3.org/Graphics/SVG/1.1/DTD/svg11.dtd"><svg t="1548387777694" class="icon" style="" viewBox="0 0 1024 1024" version="1.1" xmlns="http://www.w3.org/2000/svg" p-id="3073" xmlns:xlink="http://www.w3.org/1999/xlink" width="300" height="300"><defs><style type="text/css"></style></defs><path d="M731.428571 877.641143v-73.142857h146.285715v-73.142857H731.428571v-292.571429h219.428572v438.857143H731.428571z m146.285715-365.714286h-73.142857v146.285714h73.142857v-146.285714z m-658.285715 146.285714v-365.714285h73.142858v365.714285h73.142857v73.142858H219.428571v-73.142858z m438.857143-219.428571v292.571429H438.857143v-292.571429h219.428571z m-146.285714 219.428571h73.142857v-146.285714H512v146.285714z m292.571429-365.714285H585.142857v-219.428572H146.285714v877.714286h731.428572v73.142857H73.142857v-1024h585.142857L877.714286 219.428571v146.285715h-73.142857V292.498286zM658.285714 105.398857V219.428571h110.738286L658.285714 105.398857z" fill="#999999" p-id="3074"></path></svg>