<?xml version="1.0" standalone="no"?><!DOCTYPE svg PUBLIC "-//W3C//DTD SVG 1.1//EN" "http://www.w3.org/Graphics/SVG/1.1/DTD/svg11.dtd"><svg t="1548388037615" class="icon" style="" viewBox="0 0 1024 1024" version="1.1" xmlns="http://www.w3.org/2000/svg" p-id="5188" xmlns:xlink="http://www.w3.org/1999/xlink" width="300" height="300"><defs><style type="text/css"></style></defs><path d="M908.039388 366.285378h-24.589103V247.62792c0-0.739578-0.115793-1.484759-0.214777-2.233675-0.03922-4.712009-1.540788-9.338107-4.76617-13.004248L681.041214 6.867244c-0.061632-0.057896-0.119528-0.07844-0.158748-0.136337-1.176601-1.320408-2.547436-2.412967-4.002313-3.35238-0.427685-0.293217-0.860973-0.53414-1.31107-0.786269a20.954712 20.954712 0 0 0-3.961225-1.665918c-0.373524-0.102719-0.707829-0.253997-1.077618-0.351113A19.953667 19.953667 0 0 0 665.922818 0H180.705443C158.54985 0 140.549715 18.024414 140.549715 40.157595v326.110974H115.964347c-31.695403 0-57.395741 25.691-57.39574 57.397608V722.134487c0 31.6898 25.700338 57.393873 57.39574 57.393873h24.585368V983.844272c0 22.138784 18.000135 40.155728 40.155728 40.155728h662.587246c22.136916 0 40.155728-18.016944 40.155728-40.155728V779.530228H908.03752c31.686065 0 57.390138-25.705941 57.390138-57.393873V423.677383c0.001868-31.715946-25.702206-57.392005-57.38827-57.392005zM180.705443 40.157595h465.138578v205.455162c0 11.091803 8.996332 20.07693 20.078797 20.07693h177.371739v100.591955H180.705443V40.157595z m412.854517 526.529161c0 89.216274-54.110595 143.332471-133.643252 143.332471-80.744743 0-127.989962-60.96103-127.989961-138.487861 0-81.575835 52.082358-142.534997 132.425562-142.534997 83.587263 0 129.207651 62.58586 129.207651 137.690387zM153.4307 705.568685V433.44691h61.767842v220.452162h108.217454v51.658408H153.4307v0.011205z m689.863857 267.39109H180.705443v-193.429547h662.587246v193.429547z m18.007606-279.900418c-18.978769 6.450764-54.911804 15.331304-90.842973 15.331304-49.658185 0-85.598691-12.509328-110.637891-36.724907-25.018656-23.410634-38.753144-58.957072-38.340399-98.922302 0.399671-90.46011 66.203443-142.140929 155.44026-142.140929 35.137429 0 62.176851 6.887788 75.509801 13.332949l-12.92394 49.249176c-14.939104-6.456367-33.508863-11.706251-63.390805-11.706251-51.26434 0-90.03616 29.073262-90.03616 88.028467 0 56.120155 35.124355 89.218141 85.594956 89.218142 14.126688 0 25.442606-1.591213 30.274143-4.019122v-56.940041h-41.980394v-48.040825h101.333402v143.334339z" p-id="5189"></path><path d="M396.931177 570.315544c0 53.292576 25.0392 90.841104 66.210914 90.841105 41.588193 0 65.405969-39.567427 65.405968-92.447259 0-48.843902-23.418105-90.869119-65.809375-90.869119-41.58259-0.001868-65.807507 39.578633-65.807507 92.475273z" p-id="5190"></path></svg>