<?xml version="1.0" standalone="no"?><!DOCTYPE svg PUBLIC "-//W3C//DTD SVG 1.1//EN" "http://www.w3.org/Graphics/SVG/1.1/DTD/svg11.dtd"><svg t="1548647016154" class="icon" style="" viewBox="0 0 1024 1024" version="1.1" xmlns="http://www.w3.org/2000/svg" p-id="44509" xmlns:xlink="http://www.w3.org/1999/xlink" width="300" height="300"><defs><style type="text/css"></style></defs><path d="M732.00128 448.04096 732.00128 361.40032l228.54144 138.48576-228.54144 133.7088 0-76.40576L486.40512 557.18912c0 0-29.32224-3.40992-29.32224-42.29632l0-30.01856c0 0-0.69632-34.10944 38.19008-36.8384L732.00128 448.03584z" p-id="44510"></path><path d="M812.61056 834.63168c0 0 53.71904-46.04416 10.74688-90.55744 0 0-42.97728-32.23552-89.02656 19.94752 0 0-98.5856 95.16544-218.89536 84.41856 0 0-304.50176 6.13888-342.87104-316.19072 0 0-49.12128-285.48608 326.93248-369.89952 0 0 179.57888-13.81888 247.1168 95.16032 0 0 29.16352 46.04928 78.27968 12.27776 0 0 36.83328-36.8384-1.536-85.95456 0 0-122.09664-121.2672-288.97792-121.2672 0 0-463.5136 6.14912-461.00992 465.08032 0 0 7.45984 400.34816 445.4912 418.12992C518.85568 945.78688 688.28672 943.60576 812.61056 834.63168z" p-id="44511"></path></svg>