<?xml version="1.0" standalone="no"?><!DOCTYPE svg PUBLIC "-//W3C//DTD SVG 1.1//EN" "http://www.w3.org/Graphics/SVG/1.1/DTD/svg11.dtd"><svg t="1655639894037" class="icon" viewBox="0 0 1024 1024" version="1.1" xmlns="http://www.w3.org/2000/svg" p-id="1689" xmlns:xlink="http://www.w3.org/1999/xlink" width="200" height="200"><defs><style type="text/css">@font-face { font-family: feedback-iconfont; src: url("//at.alicdn.com/t/font_1031158_u69w8yhxdu.woff2?t=1630033759944") format("woff2"), url("//at.alicdn.com/t/font_1031158_u69w8yhxdu.woff?t=1630033759944") format("woff"), url("//at.alicdn.com/t/font_1031158_u69w8yhxdu.ttf?t=1630033759944") format("truetype"); }
@font-face { font-family: rbicon; src: url("chrome-extension://dipiagiiohfljcicegpgffpbnjmgjcnf/fonts/rbicon.woff2") format("woff2"); font-weight: normal; font-style: normal; }
</style></defs><path d="M864 96h-704a128 128 0 0 0-128 128v576a128 128 0 0 0 128 128h704a128 128 0 0 0 128-128v-576a128 128 0 0 0-128-128z m64 704a64 64 0 0 1-64 64h-704a64 64 0 0 1-64-64v-448h832v448z m0-512h-832v-64a64 64 0 0 1 64-64h704a64 64 0 0 1 64 64v64z" fill="" p-id="1690"></path><path d="M384 672a32 32 0 0 0 0 64h96v64a32 32 0 0 0 64 0v-64H640a32 32 0 0 0 0-64H544v-64H640a32 32 0 0 0 0-64H560.384l-1.088-1.088 102.4-102.4a33.472 33.472 0 0 0-47.296-47.296L512 495.616l-102.4-102.4a33.472 33.472 0 0 0-47.296 47.296l102.4 102.4-1.088 1.088H384a32 32 0 0 0 0 64h96v64H384z" fill="" p-id="1691"></path></svg>