<?xml version="1.0" standalone="no"?><!DOCTYPE svg PUBLIC "-//W3C//DTD SVG 1.1//EN" "http://www.w3.org/Graphics/SVG/1.1/DTD/svg11.dtd"><svg t="1548646717385" class="icon" style="" viewBox="0 0 1024 1024" version="1.1" xmlns="http://www.w3.org/2000/svg" p-id="38473" xmlns:xlink="http://www.w3.org/1999/xlink" width="300" height="300"><defs><style type="text/css"></style></defs><path d="M797.3 304.5H788L627.2 106.6c-7.6-9.4-20.7-12.2-31.6-6.9l-99.4 49.2H226.7C155.2 148.9 97 207.1 97 278.6v518.7C97 868.8 155.2 927 226.7 927h570.6c71.5 0 129.7-58.2 129.7-129.7V434.2c0-71.5-58.2-129.7-129.7-129.7zM600 155.4l121.2 149.1H298.7L600 155.4zM148.9 278.6c0-42.9 34.9-77.8 77.8-77.8h164.7L181.7 304.5h-32.8v-25.9z m726.2 518.7c0 42.9-34.9 77.8-77.8 77.8H226.7c-42.9 0-77.8-34.9-77.8-77.8V356.4h648.4c42.9 0 77.8 34.9 77.8 77.8v363.1z" p-id="38474"></path><path d="M632.1 638c13.2 0 23.6-8.8 23.6-20 0-11.3-10.6-20.6-23.6-20.6h-77.4l78-125.6v0.1l6-9.2c3-4.6 3.7-10.1 1.9-15.1-1.9-5.5-6.3-9.6-12-11.5-10.5-5.8-25.3-2.3-31.6 7.4l-84.3 135.8-85-135.4c-6-8.6-19.6-12.2-30.6-8-7 2.9-11.9 7.9-13.6 13.7-1.3 4.7-0.4 9.7 2.6 13.7L470 597.4h-78.7c-12.7 0-22.9 8.8-22.9 19.5 0 12.2 9.7 21.1 22.9 21.1h96.5v46h-96.5c-12.7 0-22.9 9-22.9 20 0 11.6 10.3 21.1 22.9 21.1h96.5v57.6c0 11.1 10.6 20 23.6 20 13.8 0 24.2-8.6 24.2-20v-57.6h96.5c12.6 0 23.6-9.4 23.6-20 0-11.8-10.3-21.1-23.6-21.1h-96.5v-46h96.5z" p-id="38475"></path></svg>