<?xml version="1.0" standalone="no"?><!DOCTYPE svg PUBLIC "-//W3C//DTD SVG 1.1//EN" "http://www.w3.org/Graphics/SVG/1.1/DTD/svg11.dtd"><svg t="1552291860419" class="icon" style="" viewBox="0 0 1024 1024" version="1.1" xmlns="http://www.w3.org/2000/svg" p-id="6442" xmlns:xlink="http://www.w3.org/1999/xlink" width="300" height="300"><defs><style type="text/css"></style></defs><path d="M885.798116 876.316444a99.365926 99.365926 0 0 0 99.176296-99.593481 99.365926 99.365926 0 0 0-99.176296-99.593482 99.365926 99.365926 0 0 0-99.176297 99.593482 99.365926 99.365926 0 0 0 99.176297 99.593481z m-748.695704 0a99.365926 99.365926 0 0 0 99.13837-99.593481 99.365926 99.365926 0 0 0-99.13837-99.593482A99.365926 99.365926 0 0 0 37.926116 776.722963a99.365926 99.365926 0 0 0 99.176296 99.593481zM513.896486 199.111111a99.365926 99.365926 0 0 0 99.176296-99.555555A99.365926 99.365926 0 0 0 513.896486 0a99.365926 99.365926 0 0 0-99.176296 99.593481 99.365926 99.365926 0 0 0 99.176296 99.555556z m237.947259 724.498963a442.823111 442.823111 0 0 1-242.915555 72.135111c-88.367407 0-170.742519-25.78963-240.071111-70.276741a199.035259 199.035259 0 0 0 66.522074-148.783407c0-109.985185-88.784593-199.149037-198.352593-199.149037-25.486222 0-49.872593 4.816593-72.286815 13.653333a448.284444 448.284444 0 0 1 255.241482-449.611852c19.228444 89.808593 98.721185 157.127111 193.915259 157.127112 93.639111 0 172.107852-65.156741 192.929185-152.803556a448.284444 448.284444 0 0 1 246.442667 443.467852 197.214815 197.214815 0 0 0-67.508148-11.832889c-109.530074 0-198.352593 89.125926-198.352593 199.149037 0 58.17837 24.841481 110.516148 64.474074 146.925037z" p-id="6443"></path></svg>