<?xml version="1.0" standalone="no"?><!DOCTYPE svg PUBLIC "-//W3C//DTD SVG 1.1//EN" "http://www.w3.org/Graphics/SVG/1.1/DTD/svg11.dtd"><svg t="1548647464761" class="icon" style="" viewBox="0 0 1024 1024" version="1.1" xmlns="http://www.w3.org/2000/svg" p-id="59051" xmlns:xlink="http://www.w3.org/1999/xlink" width="300" height="300"><defs><style type="text/css"></style></defs><path d="M512 0C230.4 0 0 230.4 0 512c0 281.6 230.4 512 512 512 281.6 0 512-230.4 512-512C1024 230.4 793.6 0 512 0L512 0zM512 979.2C256 979.2 51.2 768 51.2 512 51.2 256 256 44.8 512 44.8c256 0 467.2 211.2 467.2 467.2C979.2 768 774.4 979.2 512 979.2L512 979.2zM512 979.2" p-id="59052"></path><path d="M473.6 262.4 512 236.8l38.4 57.6L531.2 307.2l0 6.4 256 0 0 38.4L249.6 352 249.6 320 512 313.6 473.6 262.4zM473.6 262.4" p-id="59053"></path><path d="M454.4 345.6 281.6 512l25.6 32c0 0 300.8-25.6 371.2-12.8l12.8 0 25.6 38.4 38.4-25.6-128-153.6L595.2 409.6l51.2 76.8c0 0-153.6 0-288 12.8L512 352 454.4 345.6 454.4 345.6zM454.4 345.6" p-id="59054"></path><path d="M416 518.4l0 76.8c0 0-25.6 121.6-179.2 153.6l19.2 32c0 0 172.8-51.2 192-166.4l6.4-96L416 518.4 416 518.4zM416 518.4" p-id="59055"></path><path d="M569.6 518.4l0 198.4c0 0 0 64 64 64l89.6 0c0 0 76.8 0 76.8-121.6L748.8 640c0 0 25.6 89.6-44.8 102.4l-64 0c0 0-38.4-6.4-32-70.4l0-147.2L569.6 524.8 569.6 518.4zM569.6 518.4" p-id="59056"></path></svg>