<?xml version="1.0" standalone="no"?><!DOCTYPE svg PUBLIC "-//W3C//DTD SVG 1.1//EN" "http://www.w3.org/Graphics/SVG/1.1/DTD/svg11.dtd"><svg t="1548233259043" class="icon" style="" viewBox="0 0 1024 1024" version="1.1" xmlns="http://www.w3.org/2000/svg" p-id="5765" xmlns:xlink="http://www.w3.org/1999/xlink" width="300" height="300"><defs><style type="text/css"></style></defs><path d="M629.76 413.696H394.24c-83.968 0-163.84 69.632-163.84 92.16l87.04 384c0 22.528 60.928 117.76 148.48 117.76h92.16c94.208 0 148.48-95.232 148.48-117.76l87.04-384c0-22.528-80.896-99.328-163.84-92.16z m60.416 213.504l-209.92 209.92c-6.144 6.144-14.336 9.216-22.528 8.704-8.192 0.512-16.384-2.56-22.528-8.704l-101.376-101.376c-11.776-11.776-11.776-31.232 0-43.52 11.776-11.776 31.232-11.776 43.52 0L457.728 773.12l189.44-189.44c11.776-11.776 31.232-11.776 43.52 0 11.776 12.288 11.776 31.744-0.512 43.52z" p-id="5766"></path><path d="M189.952 497.152c0-6.144 5.632-15.872 14.848-26.112H148.48C42.496 471.04 10.24 540.672 10.24 563.2l66.56 250.88c0 22.528 30.72 97.28 112.64 97.28h94.208L189.952 497.152zM870.4 470.528h-50.176c9.216 10.752 13.824 20.48 13.824 26.112l-93.696 414.208H834.56c79.36 0 112.64-74.752 112.64-97.28l66.56-250.88c0-22.528-18.944-92.16-143.36-92.16z" p-id="5767"></path><path d="M514.048 184.32m-163.84 0a163.84 163.84 0 1 0 327.68 0 163.84 163.84 0 1 0-327.68 0Z" p-id="5768"></path><path d="M220.16 302.08m-122.88 0a122.88 122.88 0 1 0 245.76 0 122.88 122.88 0 1 0-245.76 0Z" p-id="5769"></path><path d="M808.96 302.08m-122.88 0a122.88 122.88 0 1 0 245.76 0 122.88 122.88 0 1 0-245.76 0Z" p-id="5770"></path></svg>