<?xml version="1.0" standalone="no"?><!DOCTYPE svg PUBLIC "-//W3C//DTD SVG 1.1//EN" "http://www.w3.org/Graphics/SVG/1.1/DTD/svg11.dtd"><svg t="1552291801257" class="icon" style="" viewBox="0 0 1024 1024" version="1.1" xmlns="http://www.w3.org/2000/svg" p-id="5120" xmlns:xlink="http://www.w3.org/1999/xlink" width="300" height="300"><defs><style type="text/css"></style></defs><path d="M502.612367 423.051391C447.801578 423.051391 403.147358 467.507169 403.147358 522.193034 403.147358 576.93319 447.820992 621.388967 502.612367 621.388967 557.394683 621.388967 602.052786 576.92802 602.052786 522.193034 602.052786 495.799557 591.764194 470.865492 572.971886 452.2383 554.026847 433.347406 529.029544 423.02683 502.617544 423.02683L502.612367 423.051391Z" p-id="5121"></path><path d="M822.695111 569.33883C822.695111 599.969635 795.980238 625.868025 764.314572 625.868025L754.252487 625.868025 761.357038 632.941445C772.06499 643.63172 777.828619 657.805707 777.828619 672.978919 777.828619 688.148252 771.892845 702.315775 761.357038 713.006051L693.753137 780.380641C683.050362 791.076087 668.858086 796.827119 653.664003 796.827119 638.47639 796.827119 624.289293 790.904163 613.576163 780.380641L606.320174 773.291708 606.320174 783.334362C606.320174 814.969563 580.438848 841.646132 549.734866 841.646132L454.268025 841.646132C423.597695 841.646132 397.540342 814.959223 397.540342 783.334362L397.540342 773.291708 390.289531 780.380641C379.581578 791.076087 365.389302 796.827119 350.200395 796.827119 335.007606 796.827119 320.825685 790.904163 310.107378 780.380641L242.508656 713.006051C231.800702 702.311896 226.031896 688.13791 226.031896 672.978919 226.031896 657.816049 231.962492 643.62655 242.508656 632.941445L249.587319 625.868025 239.530412 625.868025C207.855686 625.868025 181.165406 600.02005 181.165406 569.33883L181.165406 473.996307C181.165406 443.365501 207.875101 417.482625 239.530412 417.482625L249.587319 417.482625 242.508656 410.388522C231.800702 399.693074 226.031896 385.519087 226.031896 370.351048 226.031896 355.197227 231.962492 341.014192 242.508656 330.334256L310.107378 262.959666C320.81533 252.26422 335.007606 246.502847 350.200395 246.502847 365.389302 246.502847 379.576402 252.461996 390.289531 262.959666L397.540342 270.199839 397.540342 260.152015C397.540342 228.219503 423.421668 201.037506 454.268025 201.037506L549.734866 201.037506C580.4039 201.037506 606.320174 228.068262 606.320174 260.152015L606.320174 270.199839 613.576163 263.105737C624.284114 252.411584 638.47639 246.654088 653.664003 246.654088 668.858086 246.654088 683.040007 252.577044 693.753137 263.105737L761.357038 330.485497C772.06499 341.179651 777.828619 355.334248 777.828619 370.522971 777.828619 385.6755 771.892845 399.799072 761.357038 410.550103L754.252487 417.644205 764.314572 417.644205C795.984121 417.644205 822.695111 443.492181 822.695111 474.15789L822.695111 569.329781 822.695111 569.33883ZM502.076516 19.828932C224.808757 19.828932 0 244.346694 0 521.258442 0 798.159849 224.808757 1022.708636 502.076516 1022.708636 779.345569 1022.708636 1004.14915 798.175359 1004.14915 521.258442 1004.14915 244.346694 779.345569 19.828932 502.076516 19.828932L502.076516 19.828932Z" p-id="5122"></path><path d="M502.081693 662.894899C423.947164 662.894899 360.398384 599.570204 360.398384 521.571265 360.398384 443.739077 423.95234 380.252802 502.081693 380.252802 539.900583 380.252802 575.393568 394.906365 602.139504 421.638518 628.906149 448.349986 643.759825 483.837306 643.759825 521.440707 643.759825 599.620618 580.170923 662.931094 502.076516 662.931094L502.081693 662.894899ZM752.837789 450.530699 728.705095 450.530699C719.583986 450.530699 711.398674 445.012346 707.915644 436.538978 704.471445 428.171607 706.327506 418.558115 712.799134 412.150412L729.978711 395.133873C734.717235 390.397576 737.412021 383.964022 737.412021 377.021158 737.412021 370.234709 734.726297 363.766251 729.978711 358.934298L665.318107 294.497919C655.681856 284.874085 638.653714 284.874085 629.057586 294.497919L611.846944 311.49507C605.698899 317.796774 595.607044 319.836586 587.42691 316.361924 578.916722 312.883384 573.532329 304.682766 573.532329 295.58375L573.532329 271.482157C573.532329 256.844106 561.39803 243.453469 547.807614 243.453469L456.507208 243.453469C443.123885 243.453469 430.787672 256.804032 430.787672 271.482157L430.787672 295.58375C430.787672 304.73835 425.257021 312.923456 416.746832 316.361924 408.551165 319.654323 398.626279 317.786432 392.326798 311.49507L375.116156 294.306605C365.49026 284.686649 348.451763 284.686649 338.860814 294.306605L274.184677 358.741692C269.310247 363.47411 266.75266 369.896032 266.75266 376.838894 266.75266 383.630516 269.407322 390.093801 274.184677 394.760294L291.202464 411.822078C297.699976 418.25951 299.556039 427.863955 296.087247 436.361883 292.618455 444.864982 284.40208 450.405311 275.287441 450.405311L251.149571 450.405311C236.669954 450.405311 223.852251 462.381781 223.852251 475.935293L223.852251 567.123216C223.852251 580.670263 236.644068 592.657074 251.149571 592.657074L275.287441 592.657074C284.448674 592.657074 292.6081 598.039698 296.087247 606.528579 299.570276 615.182919 297.668913 624.771851 291.202464 631.078726L274.325757 648.206434C269.58335 652.942731 266.924805 659.381457 266.924805 666.324319 266.924805 673.065526 269.58335 679.528814 274.325757 684.400839L338.996717 748.84756C348.643322 758.471392 365.662404 758.471392 375.258532 748.84756L392.297029 731.829727C396.564419 727.578177 402.241329 725.235881 408.2237 725.235881 411.242068 725.235881 414.199601 725.851186 416.889208 726.962872 425.241489 730.436242 430.747548 738.652371 430.747548 747.735874L430.747548 771.842639C430.747548 786.293254 442.714879 799.078929 456.472263 799.078929L547.955169 799.078929C561.671132 799.078929 573.679881 786.298424 573.679881 771.842639L573.679881 747.735874C573.679881 738.581274 579.205356 730.43107 587.538221 726.962872 595.429723 723.665304 605.829626 725.569388 612.120045 731.829727L629.137834 748.842389C638.784439 758.466221 655.8087 758.466221 665.429418 748.842389L730.105555 684.400839C734.847962 679.669712 737.542748 673.246498 737.542748 666.319149 737.542748 659.355604 734.88291 653.043557 730.105555 648.206434L712.799134 631.189895C706.30162 624.700755 704.452029 615.153188 707.915644 606.65526 711.398674 598.31762 719.609873 592.783755 728.705095 592.783755L752.841672 592.783755C767.312227 592.783755 780.138991 580.805991 780.138991 567.258944L780.138991 476.071023C780.138991 462.513633 767.347175 450.535871 752.841672 450.535871L752.837789 450.530699Z" p-id="5123"></path></svg>