<?xml version="1.0" standalone="no"?><!DOCTYPE svg PUBLIC "-//W3C//DTD SVG 1.1//EN" "http://www.w3.org/Graphics/SVG/1.1/DTD/svg11.dtd"><svg t="1548233525324" class="icon" style="" viewBox="0 0 1024 1024" version="1.1" xmlns="http://www.w3.org/2000/svg" p-id="15382" xmlns:xlink="http://www.w3.org/1999/xlink" width="300" height="300"><defs><style type="text/css"></style></defs><path d="M205.739293 881.549637c-13.878079 0-25.149796-11.216459-25.149796-24.941042l0-48.096415c0-135.124514 81.97092-254.991532 208.825073-305.33001l14.371312-5.702885-12.204973-9.504468c-47.601134-37.164435-74.937736-92.693122-74.937736-152.327314 0-106.874099 87.599104-193.826474 195.23352-193.826474 107.673302 0 195.252962 86.952374 195.252962 193.826474 0 59.634192-27.316136 115.16288-74.936713 152.327314l-12.18553 9.504468 14.372336 5.702885c126.85313 50.338479 208.823026 170.205497 208.806653 305.33001l0 48.096415c0 13.724583-11.274788 24.941042-25.151843 24.941042L205.739293 881.549637 205.739293 881.549637 205.739293 881.549637zM511.744685 531.146059l-58.436924 0 38.932708 38.932708-38.932708 194.672748 58.398038 58.397015 58.398038-58.397015L531.17113 570.078767l38.932708-38.932708C570.103838 531.146059 525.145903 531.146059 511.744685 531.146059L511.744685 531.146059zM88.921727 784.217868c-13.745049 0-24.941042-11.06501-24.941042-24.674982l0-51.707662c0-97.141434 53.741995-185.052646 140.274814-229.479485l10.190083-5.227048-7.738241-8.459672c-26.804483-29.294187-45.39591-69.520353-45.39591-108.718097 0-83.740216 71.686692-151.605883 155.731854-155.73083-13.211906 17.811668-12.434194 18.667152-19.467377 38.931684-42.60126 14.6957-97.329722 71.211878-97.329722 116.799146 0 42.639123 40.129976 84.10042 79.32772 101.741195 10.912537 4.106528 17.623379 12.889565 17.623379 22.945595 0 10.209526-26.78504 19.505239-37.678134 23.116487l-5.834892 1.369184c-93.796246 23.457248-150.768819 105.343233-150.768819 201.229071l0 38.934754 38.932708 0c-2.794649 16.23373 0.417509 22.39301 0 38.931684L88.921727 784.218892 88.921727 784.217868 88.921727 784.217868zM881.565499 784.217868c-0.419556-16.501836 2.792603-22.660092 0-38.931684l38.932708 0 0-38.934754c0-95.885837-56.898895-177.75238-150.578484-201.211674l-6.692423-1.576915c-10.226922-3.440355-36.937261-12.869099-36.937261-22.926152 0-9.904581 6.712889-18.819624 17.09126-22.716374 39.559994-17.812691 79.785138-59.33027 79.785138-101.969393 0-45.587268-53.855582-101.228519-97.331769-116.799146-6.197142-19.504216-6.40692-21.538549-19.466354-38.931684 84.045161 4.067642 155.73083 71.934333 155.73083 155.73083 0 39.217187-18.553565 79.44233-45.338604 108.718097l-7.716752 8.459672 10.188037 5.247514c86.458117 44.407396 140.199089 130.834814 140.199089 227.976248l0 53.190433c0 13.610996-11.178597 24.674982-24.921599 24.674982l-51.745525 0 0 0L881.565499 784.217868z" p-id="15383"></path></svg>