<?xml version="1.0" standalone="no"?><!DOCTYPE svg PUBLIC "-//W3C//DTD SVG 1.1//EN" "http://www.w3.org/Graphics/SVG/1.1/DTD/svg11.dtd"><svg t="1655545638980" class="icon" viewBox="0 0 1024 1024" version="1.1" xmlns="http://www.w3.org/2000/svg" p-id="10982" xmlns:xlink="http://www.w3.org/1999/xlink" width="200" height="200"><defs><style type="text/css">@font-face { font-family: rbicon; src: url("chrome-extension://dipiagiiohfljcicegpgffpbnjmgjcnf/fonts/rbicon.woff2") format("woff2"); font-weight: normal; font-style: normal; }
@font-face { font-family: feedback-iconfont; src: url("//at.alicdn.com/t/font_1031158_u69w8yhxdu.woff2?t=1630033759944") format("woff2"), url("//at.alicdn.com/t/font_1031158_u69w8yhxdu.woff?t=1630033759944") format("woff"), url("//at.alicdn.com/t/font_1031158_u69w8yhxdu.ttf?t=1630033759944") format("truetype"); }
</style></defs><path d="M317.13066667 342.22933333h403.12533333c15.89333333 0 31.43466667-4.64 44.81066667-13.22666666 27.82933333-17.86666667 75.08266667-43.08266667 101.6-87.69066667C888.53333333 204.49066667 998.58133333-3.89333333 710.4 141.86666667c-12.10666667 6.12266667-22.4 18.13333333-43.168 5.68533333-30.35733333-18.19733333-35.53066667-67.25333333-114.112-67.25333333-69.952 0-101.58933333 45.41866667-138.21866667 68.78933333-10.92266667 6.976-23.82933333 8.032-35.49866666 3.09333333-33.32266667-14.09066667-160.78933333-91.136-208.704-76.45866666-1.792 0.55466667 1.83466667-0.26666667 0 0-24.85333333 3.56266667-140.43733333 36.78933333 89.29066666 253.39733333 15.46666667 14.57066667 35.904 13.10933333 57.14133334 13.10933333zM743.01866667 377.728a13.11146667 13.11146667 0 0 0-7.66933334-2.48533333H286.93333333c-2.816 0-5.55733333 0.90666667-7.81866666 2.60266666-27.46666667 20.512-205.12 160.8-208.68266667 359.328-2.15466667 120.30933333 95.072 218.88 215.392 218.88h453.68533333c118.10133333 0 215.872-96.62933333 216.53333334-214.73066666 1.12-201.088-185.024-343.33866667-213.024-363.59466667zM624.24533333 676.37333333c0 9.51466667-7.712 17.22666667-17.22666666 17.22666667h-59.14666667c-7.136 0-12.928 5.78133333-12.928 12.928v23.60533333c0 7.65866667 6.208 13.856 13.856 13.856h55.712c10.90133333 0 19.73333333 8.832 19.73333333 19.73333334 0 9.55733333-7.744 17.30133333-17.30133333 17.30133333h-59.05066667c-7.14666667 0-12.94933333 5.792-12.94933333 12.94933333v38.22933334c0 12.24533333-9.93066667 22.18666667-22.18666667 22.18666666-13.12 0-23.75466667-10.63466667-23.75466666-23.75466666v-38.816c0-5.96266667-4.832-10.79466667-10.79466667-10.79466667h-63.872c-9.888 0-17.90933333-8.02133333-17.90933333-17.90933333 0-10.56 8.56533333-19.12533333 19.12533333-19.12533334h58.02666667c8.52266667 0 15.43466667-6.912 15.43466666-15.43466666v-23.65866667c0-6.24-5.056-11.30666667-11.30666666-11.30666667h-64.10666667c-9.48266667 0-17.16266667-7.68-17.16266667-17.16266666 0-10.70933333 8.68266667-19.392 19.392-19.392h45.84533334c6.09066667 0 9.888-6.60266667 6.82666666-11.872l-72.10666666-123.86133334c-7.68-13.184 1.83466667-29.728 17.09866666-29.728a29.33333333 29.33333333 0 0 1 25.74933334 15.296c40.04266667 73.39733333 64.59733333 120.40533333 73.67466666 141.03466667h0.93866667c3.28533333-9.056 12.26666667-27.33866667 26.95466667-54.848l46.41066666-85.52533333c5.33333333-9.83466667 15.63733333-15.95733333 26.82666667-15.95733334 13.632 0 22.112 14.816 15.2 26.57066667l-76.224 129.664c-2.4 4.08533333 0.544 9.23733333 5.28 9.23733333h46.60266667c10.67733333 0 19.33866667 8.65066667 19.33866666 19.328z" p-id="10983"></path></svg>